<?xml version="1.0" encoding="UTF-8"?>
<svg width="600px" height="443px" viewBox="0 0 600 443" version="1.1" xmlns="http://www.w3.org/2000/svg" xmlns:xlink="http://www.w3.org/1999/xlink">
    <!-- Generator: Sketch 48.2 (47327) - http://www.bohemiancoding.com/sketch -->
    <title>Group 14</title>
    <desc>Created with Sketch.</desc>
    <defs></defs>
    <g id="Page-6" stroke="none" stroke-width="1" fill="none" fill-rule="evenodd" opacity="0.100000001">
        <g id="Group-15" transform="translate(-3.000000, 0.000000)" fill="#5587D2">
            <g id="Group-14" transform="translate(3.000000, -20.468927)">
                <rect id="Rectangle-9" x="0" y="0" width="594.470046" height="140.112994" rx="5"></rect>
                <rect id="Rectangle-9-Copy" x="0" y="183.804143" width="418.894009" height="99.4350282" rx="5"></rect>
                <rect id="Rectangle-9-Copy-2" x="438.248848" y="183.804143" width="161.751152" height="99.4350282" rx="5"></rect>
                <rect id="Rectangle-9-Copy-4" x="0" y="316.384181" width="161.751152" height="82.8625235" rx="5"></rect>
                <rect id="Rectangle-9-Copy-5" x="181.105991" y="316.384181" width="236.40553" height="82.8625235" rx="5"></rect>
                <rect id="Rectangle-9-Copy-3" x="438.248848" y="316.384181" width="161.751152" height="82.8625235" rx="5"></rect>
                <rect id="Rectangle-9-Copy-8" x="78.8018433" y="433.898305" width="84.3317972" height="49.7175141" rx="5"></rect>
                <rect id="Rectangle-9-Copy-9" x="0" y="433.898305" width="59.4470046" height="49.7175141" rx="5"></rect>
                <rect id="Rectangle-9-Copy-7" x="363.59447" y="433.898305" width="55.2995392" height="49.7175141" rx="5"></rect>
                <rect id="Rectangle-9-Copy-10" x="181.105991" y="433.898305" width="161.751152" height="49.7175141" rx="5"></rect>
                <rect id="Rectangle-9-Copy-6" x="438.248848" y="433.898305" width="161.751152" height="49.7175141" rx="5"></rect>
            </g>
        </g>
    </g>
</svg>