<?xml version="1.0" encoding="UTF-8"?>
<svg width="72px" height="136px" viewBox="0 0 72 136" version="1.1" xmlns="http://www.w3.org/2000/svg" xmlns:xlink="http://www.w3.org/1999/xlink">
    <!-- Generator: Sketch 46.2 (44496) - http://www.bohemiancoding.com/sketch -->
    <title>Group 38</title>
    <desc>Created with Sketch.</desc>
    <defs></defs>
    <g id="Home" stroke="none" stroke-width="1" fill="none" fill-rule="evenodd">
        <g id="Group-38" transform="translate(0.000000, 2.000000)">
            <path d="M7,11.175 C8.85000925,9.62499225 10.8624891,8.17500675 13.0375,6.825 C15.2125109,5.47499325 17.5499875,4.28750512 20.05,3.2625 C22.5500125,2.23749488 25.2374856,1.43750287 28.1125,0.8625 C30.9875144,0.287497125 34.0999832,0 37.45,0 C42.1500235,0 46.3874811,0.62499375 50.1625,1.875 C53.9375189,3.12500625 57.1499867,4.91248837 59.8,7.2375 C62.4500132,9.56251162 64.4874929,12.3624836 65.9125,15.6375 C67.3375071,18.9125164 68.05,22.54998 68.05,26.55 C68.05,30.4000192 67.5250052,33.6999863 66.475,36.45 C65.4249947,39.2000138 64.0875081,41.5999898 62.4625,43.65 C60.8374919,45.7000102 59.0625096,47.4624926 57.1375,48.9375 C55.2124904,50.4125074 53.3875086,51.7999935 51.6625,53.1 C49.9374914,54.4000065 48.4375064,55.6749937 47.1625,56.925 C45.8874936,58.1750063 45.1000015,59.5749923 44.8,61.125 L42.7,71.625 L26.8,71.625 L25.15,59.55 C25.0999997,59.2499985 25.0625001,58.9500015 25.0375,58.65 C25.0124999,58.3499985 25,58.0500015 25,57.75 C25,55.549989 25.5249948,53.6250082 26.575,51.975 C27.6250052,50.3249918 28.949992,48.8125069 30.55,47.4375 C32.150008,46.0624931 33.8749907,44.7375064 35.725,43.4625 C37.5750092,42.1874936 39.299992,40.8125074 40.9,39.3375 C42.500008,37.8624926 43.8249947,36.2125091 44.875,34.3875 C45.9250053,32.5624909 46.45,30.4000125 46.45,27.9 C46.45,24.899985 45.4625099,22.5125089 43.4875,20.7375 C41.5124901,18.9624911 38.8000172,18.075 35.35,18.075 C32.6999867,18.075 30.4875089,18.3499972 28.7125,18.9 C26.9374911,19.4500027 25.4125064,20.0624966 24.1375,20.7375 C22.8624936,21.4125034 21.7500048,22.0249972 20.8,22.575 C19.8499953,23.1250027 18.9000047,23.4 17.95,23.4 C15.7999892,23.4 14.2000053,22.4750093 13.15,20.625 L7,11.175 Z M20.8,98.7 C20.8,96.899991 21.1374966,95.2250078 21.8125,93.675 C22.4875034,92.1249922 23.4124941,90.7750057 24.5875,89.625 C25.7625059,88.4749942 27.149992,87.5625034 28.75,86.8875 C30.350008,86.2124966 32.0999905,85.875 34,85.875 C35.8500092,85.875 37.574992,86.2124966 39.175,86.8875 C40.775008,87.5625034 42.174994,88.4749942 43.375,89.625 C44.575006,90.7750057 45.5124966,92.1249922 46.1875,93.675 C46.8625034,95.2250078 47.2,96.899991 47.2,98.7 C47.2,100.500009 46.8625034,102.187492 46.1875,103.7625 C45.5124966,105.337508 44.575006,106.699994 43.375,107.85 C42.174994,109.000006 40.775008,109.899997 39.175,110.55 C37.574992,111.200003 35.8500092,111.525 34,111.525 C32.0999905,111.525 30.350008,111.200003 28.75,110.55 C27.149992,109.899997 25.7625059,109.000006 24.5875,107.85 C23.4124941,106.699994 22.4875034,105.337508 21.8125,103.7625 C21.1374966,102.187492 20.8,100.500009 20.8,98.7 Z" id="?" stroke="#979797" stroke-width="4" stroke-linecap="round" stroke-linejoin="round" stroke-dasharray="8,8,1,11"></path>
            <ellipse id="Oval-8" fill-opacity="0.189999998" fill="#C1C1C1" cx="36" cy="129.5" rx="36" ry="4.5"></ellipse>
        </g>
    </g>
</svg>