<?xml version="1.0" encoding="UTF-8"?>
<svg width="219px" height="219px" viewBox="0 0 219 219" version="1.1" xmlns="http://www.w3.org/2000/svg" xmlns:xlink="http://www.w3.org/1999/xlink">
    <!-- Generator: Sketch 47.1 (45422) - http://www.bohemiancoding.com/sketch -->
    <title>Group 5</title>
    <desc>Created with Sketch.</desc>
    <defs></defs>
    <g id="why-denali" stroke="none" stroke-width="1" fill="none" fill-rule="evenodd">
        <g id="Group-5">
            <path d="M25,0 L194,0 C207.807119,-2.53632657e-15 219,11.1928813 219,25 L219,194 C219,207.807119 207.807119,219 194,219 L25,219 C11.1928813,219 1.69088438e-15,207.807119 0,194 L0,25 L0,25 C-1.69088438e-15,11.1928813 11.1928813,2.53632657e-15 25,0 L25,0 Z M31,50 L31,50 C23.8202983,50 18,55.8202983 18,63 L18,188 C18,195.179702 23.8202983,201 31,201 L189,201 C196.179702,201 202,195.179702 202,188 L202,63 C202,55.8202983 196.179702,50 189,50 L31,50 Z M33,26 C37.418278,26 41,22.418278 41,18 C41,13.581722 37.418278,10 33,10 C28.581722,10 25,13.581722 25,18 C25,22.418278 28.581722,26 33,26 Z M186,26 C190.418278,26 194,22.418278 194,18 C194,13.581722 190.418278,10 186,10 C181.581722,10 178,13.581722 178,18 C178,22.418278 181.581722,26 186,26 Z" id="Combined-Shape" fill="#1184C5"></path>
            <path d="M49.876,157.888 L67.516,157.888 L67.516,111.583 C67.516,109.314989 67.5789994,106.942012 67.705,104.464 L57.31,113.095 C56.6379966,113.641003 55.9660034,114.029499 55.294,114.2605 C54.6219966,114.491501 53.9710032,114.607 53.341,114.607 C52.2489945,114.607 51.2725043,114.365502 50.4115,113.8825 C49.5504957,113.399498 48.9100021,112.885003 48.49,112.339 L42.316,104.149 L70.918,80.146 L87.046,80.146 L87.046,157.888 L102.166,157.888 L102.166,172 L49.876,172 L49.876,157.888 Z M168.568,136.342 L178.018,136.342 L178.018,147.304 C178.018,148.270005 177.692503,149.109996 177.0415,149.824 C176.390497,150.538004 175.456006,150.895 174.238,150.895 L168.568,150.895 L168.568,172 L151.558,172 L151.558,150.895 L114.64,150.895 C113.421994,150.895 112.319505,150.517004 111.3325,149.761 C110.345495,149.004996 109.726001,148.060006 109.474,146.926 L107.458,137.287 L149.92,80.209 L168.568,80.209 L168.568,136.342 Z M151.558,112.402 C151.558,110.931993 151.610499,109.346509 151.7155,107.6455 C151.820501,105.944491 151.977999,104.191009 152.188,102.385 L127.933,136.342 L151.558,136.342 L151.558,112.402 Z" id="14" fill="#273742"></path>
        </g>
    </g>
</svg>