<?xml version="1.0" encoding="UTF-8"?>
<svg width="267px" height="267px" viewBox="0 0 267 267" version="1.1" xmlns="http://www.w3.org/2000/svg" xmlns:xlink="http://www.w3.org/1999/xlink">
    <!-- Generator: Sketch 46.2 (44496) - http://www.bohemiancoding.com/sketch -->
    <title>009-connection</title>
    <desc>Created with Sketch.</desc>
    <defs>
        <filter x="-28.6%" y="-24.1%" width="157.3%" height="157.3%" filterUnits="objectBoundingBox" id="filter-1">
            <feOffset dx="0" dy="9" in="SourceAlpha" result="shadowOffsetOuter1"></feOffset>
            <feGaussianBlur stdDeviation="17.5" in="shadowOffsetOuter1" result="shadowBlurOuter1"></feGaussianBlur>
            <feColorMatrix values="0 0 0 0 0   0 0 0 0 0   0 0 0 0 0  0 0 0 0.19 0" type="matrix" in="shadowBlurOuter1" result="shadowMatrixOuter1"></feColorMatrix>
            <feMerge>
                <feMergeNode in="shadowMatrixOuter1"></feMergeNode>
                <feMergeNode in="SourceGraphic"></feMergeNode>
            </feMerge>
        </filter>
    </defs>
    <g id="Home" stroke="none" stroke-width="1" fill="none" fill-rule="evenodd">
        <g id="009-connection" filter="url(#filter-1)" transform="translate(34.000000, 25.000000)" fill-rule="nonzero">
            <path d="M161.545948,155.672949 L124.877015,119.003582 C130.592769,113.63948 134.590154,106.471156 135.952101,98.4139461 L164.810545,102.717889 C166.14821,109.82334 166.658994,89.4951672 164.996994,96.1700509 L136.464186,91.9146716 C136.378333,83.3909049 133.369128,75.5583014 128.3918,69.3668849 L143.002051,54.7566337 C148.357915,59.3528249 134.623975,44.8834947 138.535941,50.0251584 L123.884498,64.6766019 C117.440724,59.0536389 109.024925,55.6355469 99.820835,55.6355469 C99.7696698,55.6355469 98.5323116,46.9192605 96.1087602,29.4866878 C102.027007,27.3572637 81.7924918,29.6839771 89.6597836,30.3317799 L93.1129975,56.261236 C85.2929684,57.7142394 78.3401452,61.6543894 73.1056904,67.231824 L43.550013,37.6761466 C47.3253938,32.5860816 33.7453832,47.2045713 39.138103,42.4626895 L69.0640774,72.3886638 C65.8970415,77.2662634 63.858674,82.9373563 63.3197056,89.0359817 L37.7488392,89.0359817 C36.252909,82.1334564 36.2524754,102.442551 37.7488392,95.5400258 L63.3197056,95.5400258 C64.0204079,103.468456 67.2555195,110.67537 72.2085659,116.351666 L53.1230988,135.437133 C48.0191585,131.626197 62.5964559,145.248701 57.8927311,139.865087 L76.898849,120.858969 C82.269455,125.176353 88.8727943,128.019488 96.0940177,128.752277 L96.0940177,141.459878 C89.1914924,142.955809 109.500587,142.956242 102.598062,141.459878 L102.598062,128.824255 C109.184057,128.32778 115.290487,126.091689 120.452097,122.563028 L119.84592,123.169205 L156.759406,160.083125 C152.017524,165.475845 166.636013,151.897135 161.545948,155.672949 Z M99.820835,122.437284 C83.1964981,122.437284 69.6719887,108.912774 69.6719887,92.2884373 C69.6719887,75.6641005 83.1964981,62.1395911 99.820835,62.1395911 C116.444738,62.1395911 129.969681,75.6641005 129.969681,92.2884373 C129.969681,108.912341 116.444738,122.437284 99.820835,122.437284 Z" id="Shape" fill="#223843"></path>
            <g id="Group-20" transform="translate(62.000000, 55.000000)">
                <path d="M75,37.5 C75,58.2143321 58.2094638,75 37.5,75 C37.3247436,75 37.144619,75 36.9693626,74.9902635 C16.5033104,74.7127742 0,58.0390757 0,37.5 C0,16.9657925 16.5033104,0.287225756 36.9693626,0.00973646631 C37.144619,0 37.3247436,0 37.5,0 C58.2094638,-1.38363508e-14 75,16.7905362 75,37.5 Z" id="Shape" fill="#F6B159"></path>
                <path d="M74,37.5 C74,58.2143321 57.2229903,75 36.5302099,75 C36.3550947,75 36.1751152,75 36,74.9902635 L36,0.00973646631 C36.1751152,0 36.3550947,0 36.5302099,0 C57.2229903,0 74,16.7905362 74,37.5 Z" id="Shape" fill="#CF954A"></path>
            </g>
            <path d="M65.2025391,154.762314 C65.2025391,168.715928 53.8915039,180.022959 39.9418945,180.022959 C25.9882813,180.022959 14.6772461,168.715928 14.6772461,154.762314 C14.6772461,140.812705 25.9882813,129.50167 39.9418945,129.50167 C53.8915039,129.50167 65.2025391,140.812705 65.2025391,154.762314 Z" id="Shape" fill="#B86CAC"></path>
            <path d="M65.2025391,154.762314 C65.2025391,168.715928 53.8915039,180.022959 39.9418945,180.022959 L39.9418945,129.50167 C53.8915039,129.50167 65.2025391,140.812705 65.2025391,154.762314 Z" id="Shape" fill="#9E5D94"></path>
            <path d="M183.449902,36.3908301 C183.449902,50.3444434 172.138867,61.6514746 158.189258,61.6514746 C144.235645,61.6514746 132.928613,50.3444434 132.928613,36.3908301 C132.928613,22.4412207 144.235645,11.1301855 158.189258,11.1301855 C172.138867,11.1301855 183.449902,22.4412207 183.449902,36.3908301 Z" id="Shape" fill="#FE0B37"></path>
            <path d="M183.449902,36.3908301 C183.449902,50.3444434 172.138867,61.6514746 158.189258,61.6514746 L158.189258,11.1301855 C172.138867,11.1301855 183.449902,22.4412207 183.449902,36.3908301 Z" id="Shape" fill="#A50020"></path>
            <path d="M198.99707,173.736826 C198.99707,187.686436 187.686035,198.997471 173.736426,198.997471 C173.524219,198.997471 173.316016,198.993467 173.103809,198.989463 C159.44248,198.653135 148.475781,187.474229 148.475781,173.736826 C148.475781,159.99542 159.44248,148.820518 173.103809,148.484189 C173.316016,148.480186 173.524219,148.476182 173.736426,148.476182 C187.686035,148.476182 198.99707,159.783213 198.99707,173.736826 Z" id="Shape" fill="#016EF1"></path>
            <path d="M198.99707,173.736826 C198.99707,187.686436 187.686035,198.997471 173.736426,198.997471 C173.524219,198.997471 173.316016,198.993467 173.103809,198.989463 L173.103809,148.484189 C173.316016,148.480186 173.524219,148.476182 173.736426,148.476182 C187.686035,148.476182 198.99707,159.783213 198.99707,173.736826 Z" id="Shape" fill="#00479B"></path>
            <g id="Group-19">
                <path d="M50.5242188,25.2639746 C50.5242188,39.2175879 39.2171875,50.5246191 25.2635742,50.5246191 C11.3139648,50.5246191 0.0029296875,39.2175879 0.0029296875,25.2639746 C0.0029296875,11.3143652 11.3139648,0.00333007813 25.2635742,0.00333007813 C39.2171875,0.00333007813 50.5242188,11.3143652 50.5242188,25.2639746 Z" id="Shape" fill="#4F7CCB"></path>
                <path d="M50.5242187,25.2639746 C50.5242187,39.2175879 39.2171875,50.5246191 25.2635742,50.5246191 L25.2635742,0.00333007813 C39.2171875,0.00333007813 50.5242187,11.3143652 50.5242187,25.2639746 Z" id="Shape" fill="#466EB3"></path>
            </g>
            <path d="M185.031445,99.5004004 C185.031445,105.666416 180.03457,110.663291 173.868555,110.663291 C167.702539,110.663291 162.70166,105.666416 162.70166,99.5004004 C162.70166,93.3343848 167.702539,88.3375098 173.868555,88.3375098 C180.03457,88.3375098 185.031445,93.3343848 185.031445,99.5004004 Z" id="Shape" fill="#41DC42"></path>
            <path d="M185.031445,99.5004004 C185.031445,105.666416 180.03457,110.663291 173.868555,110.663291 L173.868555,88.3375098 C180.03457,88.3375098 185.031445,93.3343848 185.031445,99.5004004 Z" id="Shape" fill="#38C238"></path>
            <path d="M110.662891,151.74377 C110.662891,157.909785 105.666016,162.910664 99.5,162.910664 C93.3339844,162.910664 88.3331055,157.909785 88.3331055,151.74377 C88.3331055,145.577754 93.3339844,140.580879 99.5,140.580879 C105.666016,140.580879 110.662891,145.577354 110.662891,151.74377 Z" id="Shape" fill="#40A559"></path>
            <path d="M110.662891,151.74377 C110.662891,157.909785 105.666016,162.910664 99.5,162.910664 L99.5,140.580879 C105.666016,140.580879 110.662891,145.577354 110.662891,151.74377 Z" id="Shape" fill="#317E46"></path>
            <path d="M39.9418945,92.4935645 C39.9418945,98.6595801 34.9410156,103.660459 28.775,103.660459 C22.6089844,103.660459 17.6121094,98.6595801 17.6121094,92.4935645 C17.6121094,86.3275488 22.6089844,81.3306738 28.775,81.3306738 C34.9410156,81.3306738 39.9418945,86.3275488 39.9418945,92.4935645 Z" id="Shape" fill="#D96161"></path>
            <path d="M39.9418945,92.4935645 C39.9418945,98.6595801 34.9410156,103.660459 28.775,103.660459 L28.775,81.3306738 C34.9410156,81.3306738 39.9418945,86.3275488 39.9418945,92.4935645 Z" id="Shape" fill="#BF5656"></path>
            <path d="M102.891309,21.1679785 C102.891309,27.3339941 97.8904297,32.334873 91.728418,32.334873 C85.5624023,32.334873 80.5615234,27.3339941 80.5615234,21.1679785 C80.5615234,15.0019629 85.5624023,10.0050879 91.728418,10.0050879 C97.8904297,10.0050879 102.891309,15.0019629 102.891309,21.1679785 Z" id="Shape" fill="#41DC42"></path>
            <path d="M102.891309,21.1679785 C102.891309,27.3339941 97.8904297,32.334873 91.728418,32.334873 L91.728418,10.0050879 C97.8904297,10.0050879 102.891309,15.0019629 102.891309,21.1679785 Z" id="Shape" fill="#38C238"></path>
            <circle id="Oval" fill="#A50020" cx="165.916797" cy="35.1496191" r="7.03726563"></circle>
            <circle id="Oval" fill="#00479B" cx="180.138672" cy="169.945127" r="7.03726563"></circle>
            <circle id="Oval" fill="#466EB3" cx="31.2173828" cy="21.1279395" r="7.03726562"></circle>
        </g>
    </g>
</svg>