<?xml version="1.0" encoding="UTF-8"?>
<svg width="183px" height="181px" viewBox="0 0 183 181" version="1.1" xmlns="http://www.w3.org/2000/svg" xmlns:xlink="http://www.w3.org/1999/xlink">
    <!-- Generator: Sketch 46.2 (44496) - http://www.bohemiancoding.com/sketch -->
    <title>Group 36</title>
    <desc>Created with Sketch.</desc>
    <defs>
        <filter x="-35.5%" y="-24.0%" width="171.0%" height="171.0%" filterUnits="objectBoundingBox" id="filter-1">
            <feOffset dx="0" dy="15" in="SourceAlpha" result="shadowOffsetOuter1"></feOffset>
            <feGaussianBlur stdDeviation="13" in="shadowOffsetOuter1" result="shadowBlurOuter1"></feGaussianBlur>
            <feColorMatrix values="0 0 0 0 0   0 0 0 0 0   0 0 0 0 0  0 0 0 0.2 0" type="matrix" in="shadowBlurOuter1" result="shadowMatrixOuter1"></feColorMatrix>
            <feMerge>
                <feMergeNode in="shadowMatrixOuter1"></feMergeNode>
                <feMergeNode in="SourceGraphic"></feMergeNode>
            </feMerge>
        </filter>
    </defs>
    <g id="Home" stroke="none" stroke-width="1" fill="none" fill-rule="evenodd">
        <g id="Group-36" filter="url(#filter-1)" transform="translate(26.000000, 10.000000)">
            <path d="M65.5,131 C29.3253489,131 0,101.674651 0,65.5 C0,29.3253489 29.3253489,0 65.5,0 C101.674651,0 131,29.3253489 131,65.5 C131,101.674651 101.674651,131 65.5,131 Z M65.5,97.4512195 C83.1461713,97.4512195 97.4512195,83.1461713 97.4512195,65.5 C97.4512195,47.8538287 83.1461713,33.5487805 65.5,33.5487805 C47.8538287,33.5487805 33.5487805,47.8538287 33.5487805,65.5 C33.5487805,83.1461713 47.8538287,97.4512195 65.5,97.4512195 Z" id="Combined-Shape" fill="#EBEBEB"></path>
            <path d="M67.6651053,36.9357941 L47.7458866,2.43469518 C36.456762,5.60633239 26.4020255,11.7276316 18.4657921,19.9144778 L37.8841751,53.5481037 C42.5337548,43.6204084 52.614745,36.7439024 64.3018293,36.7439024 C65.439311,36.7439024 66.5615786,36.8090419 67.6651053,36.9357941 Z M76.4911092,39.4064685 L111.70592,19.0751882 C119.780548,27.1119821 125.770571,37.2413695 128.794045,48.5814063 L93.2855832,69.082226 C93.3990786,68.0368707 93.4573171,66.9749316 93.4573171,65.8993902 C93.4573171,54.1488392 86.5059225,44.0218734 76.4911092,39.4064685 Z M91.069605,77.4735767 L111.230487,112.393249 C103.080976,120.341929 92.8672251,126.184 81.4691678,129.039526 L61.7863435,94.9478738 C62.6154223,95.0187239 63.4544036,95.054878 64.3018293,95.054878 C76.2914716,95.054878 86.5907855,87.8177222 91.069605,77.4735767 Z M52.5611806,92.5944708 L19.2155893,111.846557 C11.1552548,103.796963 5.18199009,93.6580321 2.17748856,82.3114573 L35.2690938,63.2060101 C35.1878571,64.0929107 35.1463415,64.9913022 35.1463415,65.8993902 C35.1463415,77.8246143 42.3059383,88.0776248 52.5611806,92.5944708 Z" id="Combined-Shape" fill="#CF954A"></path>
            <path d="M65.1006098,114.22561 C38.85193,114.22561 17.5731707,92.9468505 17.5731707,66.6981707 C17.5731707,40.449491 38.85193,19.1707317 65.1006098,19.1707317 C91.3492895,19.1707317 112.628049,40.449491 112.628049,66.6981707 C112.628049,92.9468505 91.3492895,114.22561 65.1006098,114.22561 Z M64.3018293,95.054878 C80.4039606,95.054878 93.4573171,82.0015215 93.4573171,65.8993902 C93.4573171,49.797259 80.4039606,36.7439024 64.3018293,36.7439024 C48.199698,36.7439024 35.1463415,49.797259 35.1463415,65.8993902 C35.1463415,82.0015215 48.199698,95.054878 64.3018293,95.054878 Z" id="Combined-Shape-Copy" fill-opacity="0.100000001" fill="#000000"></path>
        </g>
    </g>
</svg>