<?xml version="1.0" encoding="UTF-8"?>
<svg width="274px" height="260px" viewBox="0 0 274 260" version="1.1" xmlns="http://www.w3.org/2000/svg" xmlns:xlink="http://www.w3.org/1999/xlink">
    <!-- Generator: Sketch 46.2 (44496) - http://www.bohemiancoding.com/sketch -->
    <title>Group 26</title>
    <desc>Created with Sketch.</desc>
    <defs>
        <filter x="-30.3%" y="-26.6%" width="160.7%" height="171.5%" filterUnits="objectBoundingBox" id="filter-1">
            <feOffset dx="0" dy="20" in="SourceAlpha" result="shadowOffsetOuter1"></feOffset>
            <feGaussianBlur stdDeviation="17.5" in="shadowOffsetOuter1" result="shadowBlurOuter1"></feGaussianBlur>
            <feColorMatrix values="0 0 0 0 0   0 0 0 0 0   0 0 0 0 0  0 0 0 0.2 0" type="matrix" in="shadowBlurOuter1" result="shadowMatrixOuter1"></feColorMatrix>
            <feMerge>
                <feMergeNode in="shadowMatrixOuter1"></feMergeNode>
                <feMergeNode in="SourceGraphic"></feMergeNode>
            </feMerge>
        </filter>
    </defs>
    <g id="Home" stroke="none" stroke-width="1" fill="none" fill-rule="evenodd">
        <g id="Group-26" filter="url(#filter-1)" transform="translate(34.000000, 19.000000)">
            <g id="Group-25" transform="translate(0.000000, 81.000000)">
                <path d="M59.1864746,100.142551 C21.1038071,90.0692981 1.37925548,57.5083041 0.0128197613,2.45956912 L0.0128057968,2.45956947 C-0.0200857978,1.13448651 1.02744227,0.0336306328 2.35252523,0.000739038157 C2.37237324,0.000246365018 2.3922266,3.6471438e-18 2.41208073,0 L2.41208073,0 L172.66305,0 L172.66305,7.79172007e-06 C173.988529,7.79172007e-06 175.063042,1.0745209 175.063042,2.4 C175.063042,2.4198539 175.062796,2.43970703 175.062303,2.45955482 C174.990745,5.34241138 174.868838,8.16359465 174.696584,10.9231046 C192.478562,13.6087484 206,27.0952272 206,43.3283133 C206,61.4938237 189.067702,76.2198795 168.180653,76.2198795 C163.609597,76.2198795 159.227948,75.5145933 155.17173,74.2223199 C145.431195,87.2826299 132.126826,95.9774291 115.258624,100.306717 L115.258624,103.4 C115.258624,104.283656 114.54228,105 113.658624,105 L60.7864746,105 C59.902819,105 59.1864746,104.283656 59.1864746,103.4 L59.1864746,100.142551 Z M161.966842,63.3045974 C163.857798,63.684291 165.833268,63.8855422 167.865641,63.8855422 C181.609774,63.8855422 192.751595,54.6817573 192.751595,43.3283133 C192.751595,33.5854151 184.54662,25.4255525 173.533199,23.3065691 C171.537824,38.9177487 167.682372,52.2504222 161.966842,63.3045974 Z" id="Combined-Shape" fill="#F6B159"></path>
                <path d="M87,-8.8817842e-16 L172.605073,-8.8817842e-16 L172.605073,-2.73339058e-06 C173.930558,-2.73339058e-06 175.005076,1.07451509 175.005076,2.4 C175.005076,2.41989155 175.004828,2.43978233 175.004334,2.45966773 C174.93264,5.34248504 174.810506,8.16363067 174.637931,10.9231046 C192.453227,13.6087484 206,27.0952272 206,43.3283133 C206,61.4938237 189.035976,76.2198795 168.109792,76.2198795 C163.530171,76.2198795 159.140313,75.5145933 155.076495,74.2223199 C145.317709,87.2826299 131.988412,95.9774291 115.088605,100.306717 L115.088605,103.4 L115.088605,103.4 C115.088605,104.283656 114.372261,105 113.488605,105 L87,105 L87,-1.687539e-14 Z M161.884339,63.3045974 C163.778838,63.684291 165.758009,63.8855422 167.79419,63.8855422 C181.564075,63.8855422 192.726772,54.6817573 192.726772,43.3283133 C192.726772,33.5854151 184.506423,25.4255525 173.472367,23.3065691 C171.473253,38.9177487 167.610577,52.2504222 161.884339,63.3045974 Z" id="Combined-Shape" fill="#CF954A"></path>
            </g>
            <g id="Group-24" transform="translate(41.000000, 0.000000)" stroke="#FE0B37" stroke-width="13" stroke-linecap="round">
                <path d="M47.5,61 C37.5,53.3654463 37.5,38.1202232 47.5,30.5 C57.5,22.8797768 57.5,7.62022317 47.5,0" id="Path-5-Copy-5"></path>
                <path d="M88,61 C77.3333333,53.490603 77.3333333,38.4953015 88,31" id="Path-5-Copy-4" transform="translate(84.000000, 46.000000) scale(-1, 1) translate(-84.000000, -46.000000) "></path>
                <path d="M8,61 C-2.66666667,53.490603 -2.66666667,38.4953015 8,31" id="Path-5-Copy-3"></path>
            </g>
        </g>
    </g>
</svg>