<?xml version="1.0" encoding="UTF-8"?>
<svg width="230px" height="230px" viewBox="0 0 230 230" version="1.1" xmlns="http://www.w3.org/2000/svg" xmlns:xlink="http://www.w3.org/1999/xlink">
    <!-- Generator: Sketch 46.2 (44496) - http://www.bohemiancoding.com/sketch -->
    <title>Group 35</title>
    <desc>Created with Sketch.</desc>
    <defs>
        <filter x="-33.3%" y="-24.1%" width="166.7%" height="167.5%" filterUnits="objectBoundingBox" id="filter-1">
            <feOffset dx="0" dy="16" in="SourceAlpha" result="shadowOffsetOuter1"></feOffset>
            <feGaussianBlur stdDeviation="16" in="shadowOffsetOuter1" result="shadowBlurOuter1"></feGaussianBlur>
            <feColorMatrix values="0 0 0 0 0   0 0 0 0 0   0 0 0 0 0  0 0 0 0.2 0" type="matrix" in="shadowBlurOuter1" result="shadowMatrixOuter1"></feColorMatrix>
            <feMerge>
                <feMergeNode in="shadowMatrixOuter1"></feMergeNode>
                <feMergeNode in="SourceGraphic"></feMergeNode>
            </feMerge>
        </filter>
    </defs>
    <g id="Home" stroke="none" stroke-width="1" fill="none" fill-rule="evenodd">
        <g id="Group-35" filter="url(#filter-1)" transform="translate(32.000000, 16.000000)">
            <path d="M3.75,0 L97.5,0 L97.5,166 L3.75,166 L3.75,166 C1.67893219,166 6.97721867e-16,164.321068 4.4408921e-16,162.25 L0,3.75 L4.4408921e-16,3.75 C1.90456553e-16,1.67893219 1.67893219,8.24538195e-16 3.75,4.4408921e-16 Z" id="Rectangle-13" fill="#38C238"></path>
            <rect id="Rectangle-13-Copy" fill="#38C238" x="103.5" y="4.50678733" width="25.5" height="24.1196581" rx="3.75"></rect>
            <rect id="Rectangle-13-Copy-2" fill="#38C238" x="103.5" y="36.8054299" width="25.5" height="24.1196581" rx="3.75"></rect>
            <rect id="Rectangle-13-Copy-3" fill="#38C238" x="103.5" y="69.8552036" width="25.5" height="24.1196581" rx="3.75"></rect>
            <rect id="Rectangle-13-Copy-4" fill="#38C238" x="103.5" y="102.153846" width="25.5" height="24.1196581" rx="3.75"></rect>
            <rect id="Rectangle-13-Copy-5" fill="#38C238" x="103.5" y="134.452489" width="25.5" height="24.1196581" rx="3.75"></rect>
            <rect id="Rectangle-13-Copy-10" fill="#38C238" x="134.25" y="22.5339367" width="17.25" height="16.3162393" rx="3.75"></rect>
            <rect id="Rectangle-13-Copy-9" fill="#38C238" x="134.25" y="54.8325792" width="17.25" height="16.3162393" rx="3.75"></rect>
            <rect id="Rectangle-13-Copy-8" fill="#38C238" x="134.25" y="87.8823529" width="17.25" height="16.3162393" rx="3.75"></rect>
            <rect id="Rectangle-13-Copy-7" fill="#38C238" x="134.25" y="120.180995" width="17.25" height="16.3162393" rx="3.75"></rect>
            <rect id="Rectangle-13-Copy-14" fill="#38C238" x="157.5" y="43.5656109" width="10.5" height="9.93162393" rx="3.75"></rect>
            <rect id="Rectangle-13-Copy-13" fill="#38C238" x="157.5" y="75.8642534" width="10.5" height="9.93162393" rx="3.75"></rect>
            <rect id="Rectangle-13-Copy-12" fill="#38C238" x="157.5" y="108.914027" width="10.5" height="9.93162393" rx="3.75"></rect>
            <g id="Group-30" transform="translate(17.250000, 15.773756)" stroke="#41DC42">
                <g id="Group-29" transform="translate(0.750000, 71.357466)">
                    <ellipse id="Oval-5" stroke-width="7.5" cx="7.125" cy="7.13574661" rx="7.125" ry="7.13574661"></ellipse>
                    <path d="M16.875,7.13574661 L23.625,7.13574661" id="Line-7" stroke-width="6.75"></path>
                </g>
                <polyline id="Path-5" stroke-width="7.8" points="13.5564336 11.2997924 13.5564336 0 1.5 0 1.5 18.7782805 24.75 18.7782805 24.75 5.8106235"></polyline>
                <polygon id="Path-5-Copy" stroke-width="6.29999971" points="3 99.1493213 3 111.870092 18.75 111.870092"></polygon>
                <g id="Group-28" transform="translate(0.000000, 33.049774)" stroke-width="7.5">
                    <polyline id="Path-6" points="3.96830651 10.007444 3.96830651 20.7466113 19.1985968 5.4933492 19.1985968 15.1649237"></polyline>
                    <path d="M19.5,17.2760181 L19.5,24.3400945" id="Path-7"></path>
                    <path d="M3.75,0.466277834 L3.75,7.53035422" id="Path-7-Copy"></path>
                </g>
                <polyline id="Path-8" stroke-width="9" points="3.75 137.521564 3.75 131.942828 25.1044922 126.190045"></polyline>
            </g>
            <g id="Group-32" transform="translate(52.500000, 12.769231)" stroke="#41DC42">
                <g id="Group-29" transform="translate(12.750000, 131.072398) scale(-1, -1) translate(-12.750000, -131.072398) translate(0.750000, 123.936652)">
                    <ellipse id="Oval-5" stroke-width="7.5" cx="7.125" cy="7.13574661" rx="7.125" ry="7.13574661"></ellipse>
                    <path d="M16.875,7.13574661 L23.625,7.13574661" id="Line-7" stroke-width="6.75"></path>
                </g>
                <polyline id="Path-5" stroke-width="7.8" transform="translate(12.375000, 64.972851) scale(-1, -1) translate(-12.375000, -64.972851) " points="12.8064336 66.8835028 12.8064336 55.5837104 0.75 55.5837104 0.75 74.361991 24 74.361991 24 61.3943339"></polyline>
                <polygon id="Path-5-Copy" stroke-width="6.29999971" transform="translate(14.625000, 35.654503) scale(-1, -1) rotate(-60.000000) translate(-14.625000, -35.654503) " points="6.75 29.2941176 6.75 42.0148883 22.5 42.0148883"></polygon>
                <g id="Group-28" transform="translate(13.875000, 100.276018) scale(-1, -1) rotate(-90.000000) translate(-13.875000, -100.276018) translate(2.250000, 87.882353)" stroke-width="7.5">
                    <polyline id="Path-6" points="3.96830651 10.007444 3.96830651 20.7466113 19.1985968 5.4933492 19.1985968 15.1649237"></polyline>
                    <path d="M19.5,17.2760181 L19.5,24.3400945" id="Path-7"></path>
                    <path d="M3.75,0.466277834 L3.75,7.53035422" id="Path-7-Copy"></path>
                </g>
                <polyline id="Path-8" stroke-width="9" transform="translate(11.072754, 6.352340) scale(-1, -1) translate(-11.072754, -6.352340) " points="0.395507812 12.0180995 0.395507812 6.43936334 21.75 0.686580882"></polyline>
            </g>
        </g>
    </g>
</svg>