<?xml version="1.0" encoding="UTF-8"?>
<svg width="211px" height="208px" viewBox="0 0 211 208" version="1.1" xmlns="http://www.w3.org/2000/svg" xmlns:xlink="http://www.w3.org/1999/xlink">
    <!-- Generator: Sketch 46.2 (44496) - http://www.bohemiancoding.com/sketch -->
    <title>010-open-padlock</title>
    <desc>Created with Sketch.</desc>
    <defs>
        <filter x="-40.3%" y="-29.4%" width="183.2%" height="178.4%" filterUnits="objectBoundingBox" id="filter-1">
            <feOffset dx="0" dy="15" in="SourceAlpha" result="shadowOffsetOuter1"></feOffset>
            <feGaussianBlur stdDeviation="17.5" in="shadowOffsetOuter1" result="shadowBlurOuter1"></feGaussianBlur>
            <feColorMatrix values="0 0 0 0 0   0 0 0 0 0   0 0 0 0 0  0 0 0 0.3 0" type="matrix" in="shadowBlurOuter1" result="shadowMatrixOuter1"></feColorMatrix>
            <feMerge>
                <feMergeNode in="shadowMatrixOuter1"></feMergeNode>
                <feMergeNode in="SourceGraphic"></feMergeNode>
            </feMerge>
        </filter>
    </defs>
    <g id="Home" stroke="none" stroke-width="1" fill="none" fill-rule="evenodd">
        <g id="Group-17" transform="translate(27.000000, 13.000000)">
            <g id="010-open-padlock" filter="url(#filter-1)">
                <path d="M98.9738945,66.7217461 L42.0902617,66.7217461 L42.0902617,40.9023984 C42.0902617,37.1039941 43.6008651,33.5413652 46.3440487,30.8716348 C49.0857262,28.2030996 52.703644,26.7890449 56.5387394,26.8449258 C64.2017008,26.9889609 70.4356886,33.4299023 70.4356886,41.2024219 L70.4356886,43.3309746 C70.4356886,50.7314531 76.5046095,56.7519434 83.9639483,56.7519434 C91.4235882,56.7519434 97.4922079,50.7311543 97.4922079,43.3309746 L97.4922079,40.9023984 C97.4922079,29.9177754 93.148357,19.6001367 85.2609888,11.8509258 C77.4727211,4.19883398 67.1909787,0 56.267644,0 C56.1311927,0 55.9935365,0.000896484375 55.856784,0.00179296875 C33.3471359,0.218144531 15.0334412,18.7783594 15.0334412,41.3748457 L15.0334412,66.7217461 L13.5517546,66.7217461 C6.19904665,66.7217461 0.216575051,72.6564727 0.216575051,79.951166 L0.216575051,139.77058 C0.216876268,147.065273 6.19904665,153 13.5520558,153 L98.9738945,153 C106.326602,153 112.309074,147.065273 112.309074,139.77058 L112.309074,79.951166 C112.308773,72.6564727 106.326602,66.7217461 98.9738945,66.7217461 Z M22.7638753,41.3748457 C22.7638753,22.9661367 37.6427921,7.84633008 55.9314858,7.67032031 C56.0429361,7.66942383 56.153784,7.66882617 56.2649331,7.66882617 C65.1375822,7.66882617 73.4918367,11.0817422 79.8210091,17.2997578 C86.2312089,23.5975605 89.7611714,31.9796895 89.7611714,40.9020996 L89.7611714,43.3309746 C89.7611714,46.5024375 87.1601623,49.0828184 83.9633458,49.0828184 C80.7665294,49.0828184 78.1655203,46.5024375 78.1655203,43.3309746 L78.1655203,41.2024219 C78.1655203,29.280375 68.5289848,19.4002207 56.6848296,19.1772949 C50.7493479,19.0640391 45.1644828,21.2747695 40.9296724,25.3974023 C36.6930548,29.5218281 34.3595264,35.0280352 34.3595264,40.9029961 L34.3595264,66.7220449 L22.7638753,66.7220449 L22.7638753,41.3748457 Z M104.578339,139.77058 C104.578339,142.836258 102.06408,145.330875 98.9735933,145.330875 L13.5520558,145.330875 C10.4618702,145.330875 7.94731034,142.836557 7.94731034,139.77058 L7.94731034,79.951166 C7.94731034,76.8854883 10.461569,74.3908711 13.5520558,74.3908711 L98.9738945,74.3908711 C102.06408,74.3908711 104.57864,76.8851895 104.57864,79.951166 L104.57864,139.77058 L104.578339,139.77058 Z" id="Shape" fill-rule="nonzero"></path>
                <path d="M22.7638753,51.8748457 C22.7638753,33.4661367 37.6427921,18.3463301 55.9314858,18.1703203 C56.0429361,18.1694238 56.153784,18.1688262 56.2649331,18.1688262 C65.1375822,18.1688262 73.4918367,21.5817422 79.8210091,27.7997578 C86.2312089,34.0975605 89.7611714,42.4796895 89.7611714,51.4020996 L89.7611714,53.8309746 C89.7611714,57.0024375 87.1601623,59.5828184 83.9633458,59.5828184 C80.7665294,59.5828184 78.1655203,57.0024375 78.1655203,53.8309746 L78.1655203,51.7024219 C78.1655203,39.780375 68.5289848,29.9002207 56.6848296,29.6772949 C50.7493479,29.5640391 45.1644828,31.7747695 40.9296724,35.8974023 C36.6930548,40.0218281 34.3595264,45.5280352 34.3595264,51.4029961 L34.3595264,77.2220449 L22.7638753,77.2220449 L22.7638753,51.8748457 Z" id="Path-Copy" fill="#CF954A"></path>
                <path d="M104.578339,139.77058 C104.578339,142.836258 102.06408,145.330875 98.9735933,145.330875 L13.5520558,145.330875 C10.4618702,145.330875 7.94731034,142.836557 7.94731034,139.77058 L7.94731034,79.951166 C7.94731034,76.8854883 10.461569,74.3908711 13.5520558,74.3908711 L98.9738945,74.3908711 C102.06408,74.3908711 104.57864,76.8851895 104.57864,79.951166 L104.57864,139.77058 L104.578339,139.77058 Z" id="Path" fill="#CF954A"></path>
                <path d="M101.587365,145.330875 L56,145.330875 L56,74.3908711 L101.587526,74.3908711 C103.236681,74.3908711 104.57864,76.8851895 104.57864,79.951166 L104.57864,139.77058 C104.578479,142.836258 103.236681,145.330875 101.587365,145.330875 Z" id="Path-Copy-3" fill="#B38140"></path>
                <path d="M56.2628245,81.9323965 C46.7431613,81.9323965 38.9979675,89.6158652 38.9979675,99.0600293 C38.9979675,103.91001 41.0857028,108.517342 44.6671734,111.744088 L44.6671734,133.954787 C44.6671734,136.072283 46.3976653,137.78935 48.5323905,137.78935 L63.9932586,137.78935 C66.1279838,137.78935 67.8584757,136.072283 67.8584757,133.954787 L67.8584757,111.744088 C71.4399462,108.517342 73.5276815,103.91001 73.5276815,99.0600293 C73.5273803,89.6158652 65.7824878,81.9323965 56.2628245,81.9323965 Z M61.7600355,106.785035 C60.7365,107.504016 60.1280416,108.670939 60.1280416,109.914961 L60.1280416,130.120225 L52.3976075,130.120225 L52.3976075,109.914961 C52.3976075,108.670939 51.7891491,107.504016 50.7656136,106.785035 C48.2378002,105.009697 46.7287028,102.122121 46.7287028,99.0597305 C46.7287028,93.8442832 51.0056836,89.6012227 56.2631258,89.6012227 C61.520568,89.6012227 65.7975487,93.8442832 65.7975487,99.0597305 C65.7969462,102.121822 64.2878489,105.009697 61.7600355,106.785035 Z" id="Shape" fill-rule="nonzero"></path>
                <path d="M61.7600355,106.785035 C60.7365,107.504016 60.1280416,108.670939 60.1280416,109.914961 L60.1280416,130.120225 L52.3976075,130.120225 L52.3976075,109.914961 C52.3976075,108.670939 51.7891491,107.504016 50.7656136,106.785035 C48.2378002,105.009697 46.7287028,102.122121 46.7287028,99.0597305 C46.7287028,93.8442832 51.0056836,89.6012227 56.2631258,89.6012227 C61.520568,89.6012227 65.7975487,93.8442832 65.7975487,99.0597305 C65.7969462,102.121822 64.2878489,105.009697 61.7600355,106.785035 Z" id="Path-Copy-2" fill="#FFFFFF"></path>
                <path d="M134.282556,35.5007812 L105.485955,6.93256244" id="Line" stroke="#B38140" stroke-width="7.2" stroke-linecap="round" stroke-linejoin="round" transform="translate(120.185598, 21.515625) scale(-1, 1) translate(-120.185598, -21.515625) "></path>
                <path d="M148.5,49.0078125 L125.438191,42.2787218 M115.218869,39.2968764 L107.534483,37.0546875" id="Line-2" stroke="#B38140" stroke-width="7.2" stroke-linecap="round" stroke-linejoin="round" transform="translate(128.017241, 43.031250) scale(-1, 1) translate(-128.017241, -43.031250) "></path>
                <path d="M139.884392,60.6621094 L137.015489,61.684091 M127.409074,65.1061574 L106.329615,72.6152344" id="Line-3" stroke="#B38140" stroke-width="7.2" stroke-linecap="round" stroke-linejoin="round" transform="translate(123.197769, 66.638672) scale(-1, 1) translate(-123.197769, -66.638672) "></path>
            </g>
        </g>
    </g>
</svg>